<svg viewBox="0 0 640 400" data-background-color="#ffffff" preserveAspectRatio="xMidYMid meet" height="400" width="640" xmlns="http://www.w3.org/2000/svg" xmlns:xlink="http://www.w3.org/1999/xlink"><rect width="640" height="400" x="0" y="0" opacity="0" data-fill-palette-color="background" id="background"></rect><g id="tight-bounds" transform="matrix(1,0,0,1,122.24000000000001,76.4)"><svg viewBox="0 0 395.52 247.2" height="247.2" width="395.52"><g><svg></svg></g><g><svg viewBox="0 0 395.52 247.2" height="247.2" width="395.52"><g transform="matrix(1,0,0,1,75.54432,97.83271168374816)"><svg viewBox="0 0 244.43135999999998 51.53457663250366" height="51.53457663250366" width="244.43135999999998"><g><svg viewBox="0 0 244.43135999999998 51.53457663250366" height="51.53457663250366" width="244.43135999999998"><g><svg viewBox="0 0 244.43135999999998 51.53457663250366" height="51.53457663250366" width="244.43135999999998"><g><svg viewBox="0 0 244.43135999999998 51.53457663250366" height="51.53457663250366" width="244.43135999999998"><g id="textblocktransform"><svg viewBox="0 0 244.43135999999998 51.53457663250366" height="51.53457663250366" width="244.43135999999998" id="textblock"><g><svg viewBox="0 0 244.43135999999998 51.53457663250366" height="51.53457663250366" width="244.43135999999998"><g transform="matrix(1,0,0,1,0,0)"><svg width="244.43135999999998" viewBox="1.9000000953674316 -35.5 170.74000549316406 36" height="51.53457663250366" data-palette-color="#0072E5"><path d="M14.75 0.5L14.75 0.5Q12.2 0.5 9.93-0.15 7.65-0.8 5.88-2.1 4.1-3.4 3.05-5.4 2-7.4 1.9-10.1L1.9-10.1Q1.9-10.55 2.2-10.88 2.5-11.2 3-11.2L3-11.2 5.7-11.2Q6.25-11.2 6.58-10.88 6.9-10.55 7-10.05L7-10.05Q7.2-7.8 8.3-6.43 9.4-5.05 11.1-4.4 12.8-3.75 14.85-3.75L14.85-3.75Q18.65-3.75 20.65-6.25 22.65-8.75 22.65-12.9L22.65-12.9 22.65-30.65 4.9-30.65Q4.4-30.65 4.08-30.98 3.75-31.3 3.75-31.8L3.75-31.8 3.75-33.85Q3.75-34.35 4.08-34.68 4.4-35 4.9-35L4.9-35 26.45-35Q27-35 27.33-34.68 27.65-34.35 27.65-33.8L27.65-33.8 27.65-12.8Q27.65-8.75 26.1-5.75 24.55-2.75 21.7-1.13 18.85 0.5 14.75 0.5ZM48.65 0.5L48.65 0.5Q44.35 0.5 41.3-0.98 38.25-2.45 36.6-5.53 34.95-8.6 34.75-13.25L34.75-13.25Q34.7-15.45 34.7-17.48 34.7-19.5 34.75-21.7L34.75-21.7Q34.95-26.3 36.67-29.38 38.4-32.45 41.47-33.98 44.55-35.5 48.65-35.5L48.65-35.5Q52.7-35.5 55.77-33.98 58.85-32.45 60.6-29.38 62.35-26.3 62.5-21.7L62.5-21.7Q62.6-19.5 62.6-17.48 62.6-15.45 62.5-13.25L62.5-13.25Q62.35-8.6 60.67-5.53 59-2.45 55.95-0.98 52.9 0.5 48.65 0.5ZM48.65-3.75L48.65-3.75Q52.45-3.75 54.87-6.05 57.3-8.35 57.5-13.5L57.5-13.5Q57.6-15.75 57.6-17.53 57.6-19.3 57.5-21.5L57.5-21.5Q57.4-24.95 56.22-27.1 55.05-29.25 53.1-30.25 51.15-31.25 48.65-31.25L48.65-31.25Q46.15-31.25 44.2-30.25 42.25-29.25 41.07-27.1 39.9-24.95 39.75-21.5L39.75-21.5Q39.7-19.3 39.7-17.53 39.7-15.75 39.75-13.5L39.75-13.5Q39.95-8.35 42.4-6.05 44.85-3.75 48.65-3.75ZM85.15 0L71.05 0Q70.5 0 70.2-0.33 69.89-0.65 69.89-1.15L69.89-1.15 69.89-33.8Q69.89-34.35 70.2-34.68 70.5-35 71.05-35L71.05-35 84.75-35Q88.5-35 90.87-33.77 93.25-32.55 94.37-30.45 95.5-28.35 95.5-25.75L95.5-25.75Q95.5-23.7 94.82-22.23 94.15-20.75 93.15-19.83 92.15-18.9 91.2-18.4L91.2-18.4Q93.15-17.45 94.67-15.3 96.2-13.15 96.2-10.1L96.2-10.1Q96.2-7.35 94.95-5.05 93.7-2.75 91.22-1.38 88.75 0 85.15 0L85.15 0ZM74.8-16.2L74.8-4.05 84.5-4.05Q87.7-4.05 89.45-5.8 91.2-7.55 91.2-10.1L91.2-10.1Q91.2-12.75 89.45-14.48 87.7-16.2 84.5-16.2L84.5-16.2 74.8-16.2ZM74.8-30.95L74.8-20.2 84-20.2Q87.2-20.2 88.84-21.68 90.5-23.15 90.5-25.7L90.5-25.7Q90.5-28.25 88.84-29.6 87.2-30.95 84-30.95L84-30.95 74.8-30.95ZM107.09 0L104.44 0Q103.89 0 103.59-0.33 103.29-0.65 103.29-1.15L103.29-1.15 103.29-33.85Q103.29-34.35 103.59-34.68 103.89-35 104.44-35L104.44-35 107.09-35Q107.64-35 107.94-34.68 108.24-34.35 108.24-33.85L108.24-33.85 108.24-1.15Q108.24-0.65 107.94-0.33 107.64 0 107.09 0L107.09 0ZM120.59 0L118.09 0Q117.54 0 117.24-0.33 116.94-0.65 116.94-1.15L116.94-1.15 116.94-33.8Q116.94-34.35 117.24-34.68 117.54-35 118.09-35L118.09-35 138.49-35Q139.04-35 139.37-34.68 139.69-34.35 139.69-33.8L139.69-33.8 139.69-31.8Q139.69-31.25 139.37-30.95 139.04-30.65 138.49-30.65L138.49-30.65 121.79-30.65 121.79-19 137.49-19Q138.04-19 138.37-18.68 138.69-18.35 138.69-17.8L138.69-17.8 138.69-15.8Q138.69-15.3 138.37-14.98 138.04-14.65 137.49-14.65L137.49-14.65 121.79-14.65 121.79-1.15Q121.79-0.65 121.47-0.33 121.14 0 120.59 0L120.59 0ZM159.24 0L156.64 0Q156.14 0 155.81-0.33 155.49-0.65 155.49-1.15L155.49-1.15 155.49-12.95 143.44-33.35Q143.39-33.5 143.34-33.65 143.29-33.8 143.29-34L143.29-34Q143.29-34.4 143.59-34.7 143.89-35 144.29-35L144.29-35 146.89-35Q147.34-35 147.69-34.77 148.04-34.55 148.19-34.15L148.19-34.15 157.94-17.95 167.69-34.15Q167.94-34.55 168.26-34.77 168.59-35 169.04-35L169.04-35 171.59-35Q172.04-35 172.34-34.7 172.64-34.4 172.64-34L172.64-34Q172.64-33.8 172.59-33.65 172.54-33.5 172.44-33.35L172.44-33.35 160.44-12.95 160.44-1.15Q160.44-0.65 160.11-0.33 159.79 0 159.24 0L159.24 0Z" opacity="1" transform="matrix(1,0,0,1,0,0)" fill="#0072E5" class="wordmark-text-0" data-fill-palette-color="primary" id="text-0"></path></svg></g></svg></g></svg></g></svg></g></svg></g></svg></g></svg></g><path d="M192.318 91.833L192.318 31.583 8.285 31.583 8.285 215.617 192.318 215.617 192.318 155.367 187.671 155.367 187.671 210.969 12.932 210.969 12.932 36.231 187.671 36.231 187.671 91.833Z" fill="#0072E5" stroke="transparent" data-fill-palette-color="tertiary"></path></svg></g><defs></defs></svg><rect width="395.52" height="247.2" fill="none" stroke="none" visibility="hidden"></rect></g></svg>
